<?xml version="1.0" encoding="UTF-8" standalone="no"?><!DOCTYPE svg PUBLIC "-//W3C//DTD SVG 1.1//EN" "http://www.w3.org/Graphics/SVG/1.1/DTD/svg11.dtd"><!-- Generated by graphviz version 2.40.1 (20161225.0304)
 --><!-- Title: day20 Pages: 1 --><svg xmlns="http://www.w3.org/2000/svg" xmlns:xlink="http://www.w3.org/1999/xlink" width="2260pt" height="980pt" viewBox="0.00 0.00 2260.00 980.00">
<g id="graph0" class="graph" transform="scale(1 1) rotate(0) translate(4 976)">
<title>day20</title>
<polygon fill="#ffffff" stroke="transparent" points="-4,4 -4,-976 2256,-976 2256,4 -4,4"/>
<!-- rt -->
<g id="node1" class="node">
<title>rt</title>
<polygon fill="none" stroke="#000000" points="1462,-900 1408,-900 1408,-864 1462,-864 1462,-900"/>
<text text-anchor="middle" x="1435" y="-877.8" font-family="Times,serif" font-size="14.00" fill="#000000">rt</text>
</g>
<!-- jf -->
<g id="node5" class="node">
<title>jf</title>
<polygon fill="none" stroke="#000000" points="1202,-828 1148,-828 1148,-792 1202,-792 1202,-828"/>
<text text-anchor="middle" x="1175" y="-805.8" font-family="Times,serif" font-size="14.00" fill="#000000">jf</text>
</g>
<!-- rt&#45;&gt;jf -->
<g id="edge6" class="edge">
<title>rt-&gt;jf</title>
<path fill="none" stroke="#000000" d="M1407.9411,-876.8909C1366.1519,-868.6528 1283.6627,-851.004 1216,-828 1214.574,-827.5152 1213.129,-827.0006 1211.676,-826.4637"/>
<polygon fill="#000000" stroke="#000000" points="1212.6749,-823.095 1202.0886,-822.6712 1210.1,-829.6042 1212.6749,-823.095"/>
</g>
<!-- hv -->
<g id="node12" class="node">
<title>hv</title>
<ellipse fill="none" stroke="#000000" cx="1570" cy="-306" rx="27" ry="18"/>
<text text-anchor="middle" x="1570" y="-301.8" font-family="Times,serif" font-size="14.00" fill="#000000">hv</text>
</g>
<!-- rt&#45;&gt;hv -->
<g id="edge7" class="edge">
<title>rt-&gt;hv</title>
<path fill="none" stroke="#000000" d="M1407.5742,-875.8456C1382.2369,-868.6984 1345.5115,-854.3606 1325,-828 1299.8944,-795.7352 1306,-778.8816 1306,-738 1306,-738 1306,-738 1306,-450 1306,-347.9901 1459.7912,-317.8111 1532.613,-309.239"/>
<polygon fill="#000000" stroke="#000000" points="1533.1843,-312.6974 1542.7417,-308.1251 1532.419,-305.7393 1533.1843,-312.6974"/>
</g>
<!-- bs -->
<g id="node18" class="node">
<title>bs</title>
<ellipse fill="none" stroke="#000000" cx="1361" cy="-810" rx="27" ry="18"/>
<text text-anchor="middle" x="1361" y="-805.8" font-family="Times,serif" font-size="14.00" fill="#000000">bs</text>
</g>
<!-- rt&#45;&gt;bs -->
<g id="edge8" class="edge">
<title>rt-&gt;bs</title>
<path fill="none" stroke="#000000" d="M1410.3743,-863.8314C1400.1656,-854.7588 1388.6144,-843.6649 1379.1751,-833.9106"/>
<polygon fill="#000000" stroke="#000000" points="1381.5329,-831.3095 1372.1238,-826.4393 1376.4421,-836.1141 1381.5329,-831.3095"/>
</g>
<!-- kt -->
<g id="node19" class="node">
<title>kt</title>
<ellipse fill="none" stroke="#000000" cx="1475" cy="-666" rx="27" ry="18"/>
<text text-anchor="middle" x="1475" y="-661.8" font-family="Times,serif" font-size="14.00" fill="#000000">kt</text>
</g>
<!-- rt&#45;&gt;kt -->
<g id="edge9" class="edge">
<title>rt-&gt;kt</title>
<path fill="none" stroke="#000000" d="M1442.1211,-863.9998C1451.2722,-839.869 1466.7259,-795.489 1473,-756 1476.2647,-735.4518 1476.6749,-711.9367 1476.3164,-694.0971"/>
<polygon fill="#000000" stroke="#000000" points="1479.8138,-693.951 1476.0226,-684.0578 1472.8168,-694.1559 1479.8138,-693.951"/>
</g>
<!-- fn -->
<g id="node20" class="node">
<title>fn</title>
<ellipse fill="none" stroke="#000000" cx="1494" cy="-522" rx="27" ry="18"/>
<text text-anchor="middle" x="1494" y="-517.8" font-family="Times,serif" font-size="14.00" fill="#000000">fn</text>
</g>
<!-- rt&#45;&gt;fn -->
<g id="edge10" class="edge">
<title>rt-&gt;fn</title>
<path fill="none" stroke="#000000" d="M1426.3065,-863.5801C1413.2312,-833.5693 1391.04,-772.2236 1401,-720 1413.895,-652.3872 1426.0652,-636.975 1458,-576 1463.1753,-566.1185 1469.7317,-555.804 1475.827,-546.8691"/>
<polygon fill="#000000" stroke="#000000" points="1478.8429,-548.6635 1481.7004,-538.4613 1473.1044,-544.6548 1478.8429,-548.6635"/>
</g>
<!-- gk -->
<g id="node2" class="node">
<title>gk</title>
<polygon fill="none" stroke="#000000" points="2024,-900 1970,-900 1970,-864 2024,-864 2024,-900"/>
<text text-anchor="middle" x="1997" y="-877.8" font-family="Times,serif" font-size="14.00" fill="#000000">gk</text>
</g>
<!-- zk -->
<g id="node8" class="node">
<title>zk</title>
<polygon fill="none" stroke="#000000" points="1726,-828 1672,-828 1672,-792 1726,-792 1726,-828"/>
<text text-anchor="middle" x="1699" y="-805.8" font-family="Times,serif" font-size="14.00" fill="#000000">zk</text>
</g>
<!-- gk&#45;&gt;zk -->
<g id="edge23" class="edge">
<title>gk-&gt;zk</title>
<path fill="none" stroke="#000000" d="M1969.7645,-875.4196C1916.1142,-862.4571 1796.7062,-833.6069 1735.9888,-818.9369"/>
<polygon fill="#000000" stroke="#000000" points="1736.6068,-815.4856 1726.0644,-816.5391 1734.9627,-822.2898 1736.6068,-815.4856"/>
</g>
<!-- ng -->
<g id="node10" class="node">
<title>ng</title>
<ellipse fill="none" stroke="#000000" cx="1969" cy="-306" rx="27" ry="18"/>
<text text-anchor="middle" x="1969" y="-301.8" font-family="Times,serif" font-size="14.00" fill="#000000">ng</text>
</g>
<!-- gk&#45;&gt;ng -->
<g id="edge22" class="edge">
<title>gk-&gt;ng</title>
<path fill="none" stroke="#000000" d="M1990.5526,-863.7756C1978.1097,-826.9234 1952,-740.6951 1952,-666 1952,-666 1952,-666 1952,-450 1952,-409.5973 1958.6819,-363.2552 1963.6674,-334.3013"/>
<polygon fill="#000000" stroke="#000000" points="1967.1757,-334.5623 1965.4776,-324.1045 1960.2835,-333.3387 1967.1757,-334.5623"/>
</g>
<!-- sc -->
<g id="node16" class="node">
<title>sc</title>
<ellipse fill="none" stroke="#000000" cx="2007" cy="-738" rx="27" ry="18"/>
<text text-anchor="middle" x="2007" y="-733.8" font-family="Times,serif" font-size="14.00" fill="#000000">sc</text>
</g>
<!-- gk&#45;&gt;sc -->
<g id="edge19" class="edge">
<title>gk-&gt;sc</title>
<path fill="none" stroke="#000000" d="M1998.2665,-863.7623C1999.9721,-839.201 2003.0245,-795.2474 2005.031,-766.3541"/>
<polygon fill="#000000" stroke="#000000" points="2008.5425,-766.3081 2005.7438,-756.0896 2001.5593,-765.8231 2008.5425,-766.3081"/>
</g>
<!-- sm -->
<g id="node17" class="node">
<title>sm</title>
<ellipse fill="none" stroke="#000000" cx="2045" cy="-666" rx="27" ry="18"/>
<text text-anchor="middle" x="2045" y="-661.8" font-family="Times,serif" font-size="14.00" fill="#000000">sm</text>
</g>
<!-- gk&#45;&gt;sm -->
<g id="edge24" class="edge">
<title>gk-&gt;sm</title>
<path fill="none" stroke="#000000" d="M2005.8273,-863.7555C2016.9454,-839.7185 2035.5015,-795.8198 2043,-756 2046.8503,-735.5535 2047.237,-712.0343 2046.7212,-694.1673"/>
<polygon fill="#000000" stroke="#000000" points="2050.2158,-693.9616 2046.3195,-684.1093 2043.2214,-694.241 2050.2158,-693.9616"/>
</g>
<!-- mx -->
<g id="node24" class="node">
<title>mx</title>
<ellipse fill="none" stroke="#000000" cx="2083" cy="-594" rx="27" ry="18"/>
<text text-anchor="middle" x="2083" y="-589.8" font-family="Times,serif" font-size="14.00" fill="#000000">mx</text>
</g>
<!-- gk&#45;&gt;mx -->
<g id="edge18" class="edge">
<title>gk-&gt;mx</title>
<path fill="none" stroke="#000000" d="M2015.434,-863.9598C2024.5879,-854.0917 2035.13,-841.2085 2042,-828 2072.5958,-769.1754 2071.5274,-749.6256 2081,-684 2083.9724,-663.4075 2084.3942,-639.8942 2084.1144,-622.0664"/>
<polygon fill="#000000" stroke="#000000" points="2087.6127,-621.9487 2083.8743,-612.0353 2080.6147,-622.1162 2087.6127,-621.9487"/>
</g>
<!-- vq -->
<g id="node26" class="node">
<title>vq</title>
<ellipse fill="none" stroke="#000000" cx="2140" cy="-378" rx="27" ry="18"/>
<text text-anchor="middle" x="2140" y="-373.8" font-family="Times,serif" font-size="14.00" fill="#000000">vq</text>
</g>
<!-- gk&#45;&gt;vq -->
<g id="edge20" class="edge">
<title>gk-&gt;vq</title>
<path fill="none" stroke="#000000" d="M2024.0444,-877.2346C2082.2151,-865.2674 2214,-828.2018 2214,-738 2214,-738 2214,-738 2214,-522 2214,-475.1302 2182.6033,-428.2231 2160.7115,-401.2131"/>
<polygon fill="#000000" stroke="#000000" points="2163.3623,-398.927 2154.2679,-393.4916 2157.9878,-403.412 2163.3623,-398.927"/>
</g>
<!-- bz -->
<g id="node27" class="node">
<title>bz</title>
<ellipse fill="none" stroke="#000000" cx="1885" cy="-810" rx="27" ry="18"/>
<text text-anchor="middle" x="1885" y="-805.8" font-family="Times,serif" font-size="14.00" fill="#000000">bz</text>
</g>
<!-- gk&#45;&gt;bz -->
<g id="edge21" class="edge">
<title>gk-&gt;bz</title>
<path fill="none" stroke="#000000" d="M1969.9473,-868.1177C1951.8253,-857.3998 1928.2807,-842.4116 1910.4942,-830.3408"/>
<polygon fill="#000000" stroke="#000000" points="1911.9971,-827.1259 1901.7772,-824.3325 1908.0246,-832.8894 1911.9971,-827.1259"/>
</g>
<!-- hj -->
<g id="node3" class="node">
<title>hj</title>
<polygon fill="none" stroke="#000000" points="1166,-756 1112,-756 1112,-720 1166,-720 1166,-756"/>
<text text-anchor="middle" x="1139" y="-733.8" font-family="Times,serif" font-size="14.00" fill="#000000">hj</text>
</g>
<!-- rx -->
<g id="node46" class="node">
<title>rx</title>
<ellipse fill="none" stroke="#000000" cx="1139" cy="-666" rx="27" ry="18"/>
<text text-anchor="middle" x="1139" y="-661.8" font-family="Times,serif" font-size="14.00" fill="#000000">rx</text>
</g>
<!-- hj&#45;&gt;rx -->
<g id="edge51" class="edge">
<title>hj-&gt;rx</title>
<path fill="none" stroke="#000000" d="M1139,-719.8314C1139,-712.131 1139,-702.9743 1139,-694.4166"/>
<polygon fill="#000000" stroke="#000000" points="1142.5001,-694.4132 1139,-684.4133 1135.5001,-694.4133 1142.5001,-694.4132"/>
</g>
<!-- ks -->
<g id="node4" class="node">
<title>ks</title>
<polygon fill="none" stroke="#000000" points="948,-828 894,-828 894,-792 948,-792 948,-828"/>
<text text-anchor="middle" x="921" y="-805.8" font-family="Times,serif" font-size="14.00" fill="#000000">ks</text>
</g>
<!-- ks&#45;&gt;hj -->
<g id="edge56" class="edge">
<title>ks-&gt;hj</title>
<path fill="none" stroke="#000000" d="M948.1691,-801.0267C987.0307,-788.1917 1058.596,-764.5554 1102.1839,-750.1594"/>
<polygon fill="#000000" stroke="#000000" points="1103.4339,-753.4326 1111.8318,-746.973 1101.2386,-746.7858 1103.4339,-753.4326"/>
</g>
<!-- jf&#45;&gt;hj -->
<g id="edge69" class="edge">
<title>jf-&gt;hj</title>
<path fill="none" stroke="#000000" d="M1165.9157,-791.8314C1161.9385,-783.8771 1157.1845,-774.369 1152.7861,-765.5723"/>
<polygon fill="#000000" stroke="#000000" points="1155.8093,-763.7923 1148.2066,-756.4133 1149.5483,-766.9228 1155.8093,-763.7923"/>
</g>
<!-- qs -->
<g id="node6" class="node">
<title>qs</title>
<polygon fill="none" stroke="#000000" points="1130,-828 1076,-828 1076,-792 1130,-792 1130,-828"/>
<text text-anchor="middle" x="1103" y="-805.8" font-family="Times,serif" font-size="14.00" fill="#000000">qs</text>
</g>
<!-- qs&#45;&gt;hj -->
<g id="edge79" class="edge">
<title>qs-&gt;hj</title>
<path fill="none" stroke="#000000" d="M1112.0843,-791.8314C1116.0615,-783.8771 1120.8155,-774.369 1125.2139,-765.5723"/>
<polygon fill="#000000" stroke="#000000" points="1128.4517,-766.9228 1129.7934,-756.4133 1122.1907,-763.7923 1128.4517,-766.9228"/>
</g>
<!-- fv -->
<g id="node7" class="node">
<title>fv</title>
<polygon fill="none" stroke="#000000" points="794,-900 740,-900 740,-864 794,-864 794,-900"/>
<text text-anchor="middle" x="767" y="-877.8" font-family="Times,serif" font-size="14.00" fill="#000000">fv</text>
</g>
<!-- fv&#45;&gt;qs -->
<g id="edge92" class="edge">
<title>fv-&gt;qs</title>
<path fill="none" stroke="#000000" d="M794.1226,-879.7298C845.9089,-874.8476 962.2477,-861.2382 1066.1366,-827.7841"/>
<polygon fill="#000000" stroke="#000000" points="1067.4242,-831.045 1075.8276,-824.5925 1065.2346,-824.3962 1067.4242,-831.045"/>
</g>
<!-- cn -->
<g id="node14" class="node">
<title>cn</title>
<ellipse fill="none" stroke="#000000" cx="1031" cy="-810" rx="27" ry="18"/>
<text text-anchor="middle" x="1031" y="-805.8" font-family="Times,serif" font-size="14.00" fill="#000000">cn</text>
</g>
<!-- fv&#45;&gt;cn -->
<g id="edge94" class="edge">
<title>fv-&gt;cn</title>
<path fill="none" stroke="#000000" d="M794.2399,-875.827C835.4538,-867.249 915.1422,-850.2371 981,-828 986.2478,-826.2281 991.7504,-824.0481 997.1535,-821.8246"/>
<polygon fill="#000000" stroke="#000000" points="998.8074,-824.9273 1006.6951,-817.8538 996.1179,-818.4646 998.8074,-824.9273"/>
</g>
<!-- gs -->
<g id="node35" class="node">
<title>gs</title>
<ellipse fill="none" stroke="#000000" cx="640" cy="-522" rx="27" ry="18"/>
<text text-anchor="middle" x="640" y="-517.8" font-family="Times,serif" font-size="14.00" fill="#000000">gs</text>
</g>
<!-- fv&#45;&gt;gs -->
<g id="edge93" class="edge">
<title>fv-&gt;gs</title>
<path fill="none" stroke="#000000" d="M739.7175,-872.3829C693.3153,-854.0794 604,-809.555 604,-738 604,-738 604,-738 604,-666 604,-624.2294 618.433,-577.6235 629.0216,-549.052"/>
<polygon fill="#000000" stroke="#000000" points="632.4158,-549.9746 632.7149,-539.384 625.8767,-547.4765 632.4158,-549.9746"/>
</g>
<!-- xt -->
<g id="node36" class="node">
<title>xt</title>
<ellipse fill="none" stroke="#000000" cx="640" cy="-450" rx="27" ry="18"/>
<text text-anchor="middle" x="640" y="-445.8" font-family="Times,serif" font-size="14.00" fill="#000000">xt</text>
</g>
<!-- fv&#45;&gt;xt -->
<g id="edge91" class="edge">
<title>fv-&gt;xt</title>
<path fill="none" stroke="#000000" d="M739.817,-877.5244C708.2947,-871.1675 656.1714,-856.9251 621,-828 584.7936,-798.2237 566,-784.8778 566,-738 566,-738 566,-738 566,-594 566,-547.1302 597.3967,-500.2231 619.2885,-473.2131"/>
<polygon fill="#000000" stroke="#000000" points="622.0122,-475.412 625.7321,-465.4916 616.6377,-470.927 622.0122,-475.412"/>
</g>
<!-- hk -->
<g id="node42" class="node">
<title>hk</title>
<ellipse fill="none" stroke="#000000" cx="792" cy="-306" rx="27" ry="18"/>
<text text-anchor="middle" x="792" y="-301.8" font-family="Times,serif" font-size="14.00" fill="#000000">hk</text>
</g>
<!-- fv&#45;&gt;hk -->
<g id="edge96" class="edge">
<title>fv-&gt;hk</title>
<path fill="none" stroke="#000000" d="M780.2361,-863.9445C798.1767,-837.6382 828,-786.5995 828,-738 828,-738 828,-738 828,-450 828,-408.2294 813.567,-361.6235 802.9784,-333.052"/>
<polygon fill="#000000" stroke="#000000" points="806.1233,-331.4765 799.2851,-323.384 799.5842,-333.9746 806.1233,-331.4765"/>
</g>
<!-- lx -->
<g id="node57" class="node">
<title>lx</title>
<ellipse fill="none" stroke="#000000" cx="659" cy="-594" rx="27" ry="18"/>
<text text-anchor="middle" x="659" y="-589.8" font-family="Times,serif" font-size="14.00" fill="#000000">lx</text>
</g>
<!-- fv&#45;&gt;lx -->
<g id="edge95" class="edge">
<title>fv-&gt;lx</title>
<path fill="none" stroke="#000000" d="M742.554,-863.9888C731.0097,-854.4077 717.8545,-841.7711 709,-828 672.5145,-771.2556 672.5453,-750.4667 661,-684 657.4393,-663.501 657.041,-639.984 657.479,-622.1311"/>
<polygon fill="#000000" stroke="#000000" points="660.9787,-622.198 657.8274,-612.0827 653.9829,-621.9554 660.9787,-622.198"/>
</g>
<!-- zk&#45;&gt;hj -->
<g id="edge98" class="edge">
<title>zk-&gt;hj</title>
<path fill="none" stroke="#000000" d="M1671.99,-806.5273C1580.4234,-794.7544 1281.6324,-756.3385 1176.2257,-742.7862"/>
<polygon fill="#000000" stroke="#000000" points="1176.4308,-739.2838 1166.0661,-741.4799 1175.5381,-746.2267 1176.4308,-739.2838"/>
</g>
<!-- sl -->
<g id="node9" class="node">
<title>sl</title>
<polygon fill="none" stroke="#000000" points="274,-900 220,-900 220,-864 274,-864 274,-900"/>
<text text-anchor="middle" x="247" y="-877.8" font-family="Times,serif" font-size="14.00" fill="#000000">sl</text>
</g>
<!-- sl&#45;&gt;ks -->
<g id="edge103" class="edge">
<title>sl-&gt;ks</title>
<path fill="none" stroke="#000000" d="M274.2564,-879.0883C379.8029,-867.8133 761.7896,-827.0076 883.4824,-814.0078"/>
<polygon fill="#000000" stroke="#000000" points="884.2032,-817.4508 893.7748,-812.9083 883.4596,-810.4904 884.2032,-817.4508"/>
</g>
<!-- rq -->
<g id="node30" class="node">
<title>rq</title>
<ellipse fill="none" stroke="#000000" cx="397" cy="-810" rx="27" ry="18"/>
<text text-anchor="middle" x="397" y="-805.8" font-family="Times,serif" font-size="14.00" fill="#000000">rq</text>
</g>
<!-- sl&#45;&gt;rq -->
<g id="edge100" class="edge">
<title>sl-&gt;rq</title>
<path fill="none" stroke="#000000" d="M274.2188,-866.1993C299.4491,-853.3693 336.8262,-835.4786 363.7905,-823.3556"/>
<polygon fill="#000000" stroke="#000000" points="365.494,-826.4287 373.2119,-819.1702 362.6521,-820.0316 365.494,-826.4287"/>
</g>
<!-- xd -->
<g id="node31" class="node">
<title>xd</title>
<ellipse fill="none" stroke="#000000" cx="359" cy="-738" rx="27" ry="18"/>
<text text-anchor="middle" x="359" y="-733.8" font-family="Times,serif" font-size="14.00" fill="#000000">xd</text>
</g>
<!-- sl&#45;&gt;xd -->
<g id="edge102" class="edge">
<title>sl-&gt;xd</title>
<path fill="none" stroke="#000000" d="M274.2566,-865.9326C288.7072,-856.354 305.9181,-843.1249 318,-828 332.8973,-809.3507 343.7054,-784.4163 350.4724,-765.5222"/>
<polygon fill="#000000" stroke="#000000" points="353.8074,-766.5864 353.7297,-755.9919 347.1836,-764.3225 353.8074,-766.5864"/>
</g>
<!-- fz -->
<g id="node39" class="node">
<title>fz</title>
<ellipse fill="none" stroke="#000000" cx="245" cy="-522" rx="27" ry="18"/>
<text text-anchor="middle" x="245" y="-517.8" font-family="Times,serif" font-size="14.00" fill="#000000">fz</text>
</g>
<!-- sl&#45;&gt;fz -->
<g id="edge101" class="edge">
<title>sl-&gt;fz</title>
<path fill="none" stroke="#000000" d="M243.0632,-863.9156C237.498,-836.7281 228,-783.6422 228,-738 228,-738 228,-738 228,-666 228,-625.5973 234.6819,-579.2552 239.6674,-550.3013"/>
<polygon fill="#000000" stroke="#000000" points="243.1757,-550.5623 241.4776,-540.1045 236.2835,-549.3387 243.1757,-550.5623"/>
</g>
<!-- fk -->
<g id="node53" class="node">
<title>fk</title>
<ellipse fill="none" stroke="#000000" cx="188" cy="-378" rx="27" ry="18"/>
<text text-anchor="middle" x="188" y="-373.8" font-family="Times,serif" font-size="14.00" fill="#000000">fk</text>
</g>
<!-- sl&#45;&gt;fk -->
<g id="edge99" class="edge">
<title>sl-&gt;fk</title>
<path fill="none" stroke="#000000" d="M224.4863,-863.6157C196.3935,-838.4589 152,-790.413 152,-738 152,-738 152,-738 152,-522 152,-480.2294 166.433,-433.6235 177.0216,-405.052"/>
<polygon fill="#000000" stroke="#000000" points="180.4158,-405.9746 180.7149,-395.384 173.8767,-403.4765 180.4158,-405.9746"/>
</g>
<!-- vz -->
<g id="node11" class="node">
<title>vz</title>
<ellipse fill="none" stroke="#000000" cx="1914" cy="-234" rx="27" ry="18"/>
<text text-anchor="middle" x="1914" y="-229.8" font-family="Times,serif" font-size="14.00" fill="#000000">vz</text>
</g>
<!-- ng&#45;&gt;vz -->
<g id="edge1" class="edge">
<title>ng-&gt;vz</title>
<path fill="none" stroke="#000000" d="M1956.5196,-289.6621C1949.4876,-280.4564 1940.5653,-268.7764 1932.7117,-258.4953"/>
<polygon fill="#000000" stroke="#000000" points="1935.2828,-256.0953 1926.431,-250.2733 1929.72,-260.3446 1935.2828,-256.0953"/>
</g>
<!-- vz&#45;&gt;gk -->
<g id="edge13" class="edge">
<title>vz-&gt;gk</title>
<path fill="none" stroke="#000000" d="M1914,-252.1854C1914,-279.5017 1914,-332.75 1914,-378 1914,-666 1914,-666 1914,-666 1914,-738.304 1955.025,-815.7055 1979.3899,-855.2986"/>
<polygon fill="#000000" stroke="#000000" points="1976.4721,-857.2336 1984.7531,-863.8424 1982.4008,-853.512 1976.4721,-857.2336"/>
</g>
<!-- lg -->
<g id="node23" class="node">
<title>lg</title>
<ellipse fill="none" stroke="#000000" cx="1880" cy="-162" rx="27" ry="18"/>
<text text-anchor="middle" x="1880" y="-157.8" font-family="Times,serif" font-size="14.00" fill="#000000">lg</text>
</g>
<!-- vz&#45;&gt;lg -->
<g id="edge14" class="edge">
<title>vz-&gt;lg</title>
<path fill="none" stroke="#000000" d="M1905.7695,-216.5708C1901.8021,-208.1691 1896.9571,-197.9091 1892.5433,-188.5623"/>
<polygon fill="#000000" stroke="#000000" points="1895.5896,-186.8166 1888.1547,-179.2687 1889.2599,-189.8057 1895.5896,-186.8166"/>
</g>
<!-- zz -->
<g id="node13" class="node">
<title>zz</title>
<ellipse fill="none" stroke="#000000" cx="1607" cy="-234" rx="27" ry="18"/>
<text text-anchor="middle" x="1607" y="-229.8" font-family="Times,serif" font-size="14.00" fill="#000000">zz</text>
</g>
<!-- hv&#45;&gt;zz -->
<g id="edge2" class="edge">
<title>hv-&gt;zz</title>
<path fill="none" stroke="#000000" d="M1578.7685,-288.937C1583.1279,-280.4537 1588.4953,-270.0092 1593.3753,-260.513"/>
<polygon fill="#000000" stroke="#000000" points="1596.5797,-261.9348 1598.0374,-251.4407 1590.3537,-258.7352 1596.5797,-261.9348"/>
</g>
<!-- zz&#45;&gt;rt -->
<g id="edge73" class="edge">
<title>zz-&gt;rt</title>
<path fill="none" stroke="#000000" d="M1614.4875,-251.3645C1625.299,-278.0586 1644,-331.022 1644,-378 1644,-738 1644,-738 1644,-738 1644,-820.4742 1532.2757,-859.3255 1472.1994,-874.2549"/>
<polygon fill="#000000" stroke="#000000" points="1471.2387,-870.8858 1462.3231,-876.6096 1472.8622,-877.6949 1471.2387,-870.8858"/>
</g>
<!-- jg -->
<g id="node56" class="node">
<title>jg</title>
<ellipse fill="none" stroke="#000000" cx="1607" cy="-162" rx="27" ry="18"/>
<text text-anchor="middle" x="1607" y="-157.8" font-family="Times,serif" font-size="14.00" fill="#000000">jg</text>
</g>
<!-- zz&#45;&gt;jg -->
<g id="edge72" class="edge">
<title>zz-&gt;jg</title>
<path fill="none" stroke="#000000" d="M1607,-215.8314C1607,-208.131 1607,-198.9743 1607,-190.4166"/>
<polygon fill="#000000" stroke="#000000" points="1610.5001,-190.4132 1607,-180.4133 1603.5001,-190.4133 1610.5001,-190.4132"/>
</g>
<!-- cn&#45;&gt;fv -->
<g id="edge3" class="edge">
<title>cn-&gt;fv</title>
<path fill="none" stroke="#000000" d="M1011.9217,-823.0582C1007.7126,-824.8448 1003.2719,-826.5576 999,-828 931.9835,-850.6284 850.6453,-867.8461 804.0934,-876.272"/>
<polygon fill="#000000" stroke="#000000" points="803.3866,-872.8426 794.1493,-878.0314 804.6062,-879.7355 803.3866,-872.8426"/>
</g>
<!-- kp -->
<g id="node15" class="node">
<title>kp</title>
<ellipse fill="none" stroke="#000000" cx="735" cy="-738" rx="27" ry="18"/>
<text text-anchor="middle" x="735" y="-733.8" font-family="Times,serif" font-size="14.00" fill="#000000">kp</text>
</g>
<!-- cn&#45;&gt;kp -->
<g id="edge4" class="edge">
<title>cn-&gt;kp</title>
<path fill="none" stroke="#000000" d="M1005.507,-803.799C952.6143,-790.9332 830.8484,-761.3145 770.3889,-746.6081"/>
<polygon fill="#000000" stroke="#000000" points="771.0806,-743.1744 760.5366,-744.2116 769.426,-749.976 771.0806,-743.1744"/>
</g>
<!-- kp&#45;&gt;fv -->
<g id="edge16" class="edge">
<title>kp-&gt;fv</title>
<path fill="none" stroke="#000000" d="M739.0199,-756.0896C744.4846,-780.6805 754.3122,-824.905 760.7451,-853.8531"/>
<polygon fill="#000000" stroke="#000000" points="757.3611,-854.7597 762.9472,-863.7623 764.1945,-853.2411 757.3611,-854.7597"/>
</g>
<!-- pq -->
<g id="node25" class="node">
<title>pq</title>
<ellipse fill="none" stroke="#000000" cx="697" cy="-666" rx="27" ry="18"/>
<text text-anchor="middle" x="697" y="-661.8" font-family="Times,serif" font-size="14.00" fill="#000000">pq</text>
</g>
<!-- kp&#45;&gt;pq -->
<g id="edge17" class="edge">
<title>kp-&gt;pq</title>
<path fill="none" stroke="#000000" d="M725.9945,-720.937C721.5172,-712.4537 716.0048,-702.0092 710.993,-692.513"/>
<polygon fill="#000000" stroke="#000000" points="713.9678,-690.6509 706.2048,-683.4407 707.7771,-693.9182 713.9678,-690.6509"/>
</g>
<!-- sc&#45;&gt;sm -->
<g id="edge5" class="edge">
<title>sc-&gt;sm</title>
<path fill="none" stroke="#000000" d="M2016.0055,-720.937C2020.4828,-712.4537 2025.9952,-702.0092 2031.007,-692.513"/>
<polygon fill="#000000" stroke="#000000" points="2034.2229,-693.9182 2035.7952,-683.4407 2028.0322,-690.6509 2034.2229,-693.9182"/>
</g>
<!-- sm&#45;&gt;mx -->
<g id="edge15" class="edge">
<title>sm-&gt;mx</title>
<path fill="none" stroke="#000000" d="M2054.0055,-648.937C2058.4828,-640.4537 2063.9952,-630.0092 2069.007,-620.513"/>
<polygon fill="#000000" stroke="#000000" points="2072.2229,-621.9182 2073.7952,-611.4407 2066.0322,-618.6509 2072.2229,-621.9182"/>
</g>
<!-- bs&#45;&gt;rt -->
<g id="edge25" class="edge">
<title>bs-&gt;rt</title>
<path fill="none" stroke="#000000" d="M1379.8878,-823.164C1390.7322,-832.4264 1404.1614,-845.1238 1415.1356,-856.3525"/>
<polygon fill="#000000" stroke="#000000" points="1412.841,-859.0174 1422.2791,-863.8314 1417.903,-854.1825 1412.841,-859.0174"/>
</g>
<!-- mk -->
<g id="node28" class="node">
<title>mk</title>
<ellipse fill="none" stroke="#000000" cx="1437" cy="-738" rx="27" ry="18"/>
<text text-anchor="middle" x="1437" y="-733.8" font-family="Times,serif" font-size="14.00" fill="#000000">mk</text>
</g>
<!-- bs&#45;&gt;mk -->
<g id="edge26" class="edge">
<title>bs-&gt;mk</title>
<path fill="none" stroke="#000000" d="M1376.7472,-795.0816C1387.447,-784.945 1401.781,-771.3654 1413.7837,-759.9944"/>
<polygon fill="#000000" stroke="#000000" points="1416.4205,-762.3177 1421.2729,-752.8993 1411.6063,-757.236 1416.4205,-762.3177"/>
</g>
<!-- bt -->
<g id="node40" class="node">
<title>bt</title>
<ellipse fill="none" stroke="#000000" cx="1494" cy="-594" rx="27" ry="18"/>
<text text-anchor="middle" x="1494" y="-589.8" font-family="Times,serif" font-size="14.00" fill="#000000">bt</text>
</g>
<!-- kt&#45;&gt;bt -->
<g id="edge42" class="edge">
<title>kt-&gt;bt</title>
<path fill="none" stroke="#000000" d="M1479.6966,-648.2022C1481.7976,-640.2406 1484.324,-630.6671 1486.665,-621.7957"/>
<polygon fill="#000000" stroke="#000000" points="1490.1241,-622.4046 1489.2916,-611.8425 1483.3558,-620.6185 1490.1241,-622.4046"/>
</g>
<!-- vj -->
<g id="node47" class="node">
<title>vj</title>
<ellipse fill="none" stroke="#000000" cx="1551" cy="-450" rx="27" ry="18"/>
<text text-anchor="middle" x="1551" y="-445.8" font-family="Times,serif" font-size="14.00" fill="#000000">vj</text>
</g>
<!-- fn&#45;&gt;vj -->
<g id="edge60" class="edge">
<title>fn-&gt;vj</title>
<path fill="none" stroke="#000000" d="M1506.6501,-506.0209C1514.1035,-496.6061 1523.6775,-484.5126 1532.0214,-473.973"/>
<polygon fill="#000000" stroke="#000000" points="1534.9223,-475.9474 1538.3852,-465.9345 1529.434,-471.6025 1534.9223,-475.9474"/>
</g>
<!-- bc -->
<g id="node21" class="node">
<title>bc</title>
<ellipse fill="none" stroke="#000000" cx="575" cy="-18" rx="27" ry="18"/>
<text text-anchor="middle" x="575" y="-13.8" font-family="Times,serif" font-size="14.00" fill="#000000">bc</text>
</g>
<!-- bc&#45;&gt;fv -->
<g id="edge11" class="edge">
<title>bc-&gt;fv</title>
<path fill="none" stroke="#000000" d="M559.0122,-32.6921C534.3897,-57.0083 490,-108.2937 490,-162 490,-738 490,-738 490,-738 490,-783.5442 502.8091,-800.3506 539,-828 568.6696,-850.6672 673.0285,-868.5932 729.7028,-876.922"/>
<polygon fill="#000000" stroke="#000000" points="729.3041,-880.4006 739.7015,-878.3644 730.3037,-873.4723 729.3041,-880.4006"/>
</g>
<!-- sb -->
<g id="node22" class="node">
<title>sb</title>
<ellipse fill="none" stroke="#000000" cx="2066" cy="-18" rx="27" ry="18"/>
<text text-anchor="middle" x="2066" y="-13.8" font-family="Times,serif" font-size="14.00" fill="#000000">sb</text>
</g>
<!-- sb&#45;&gt;gk -->
<g id="edge12" class="edge">
<title>sb-&gt;gk</title>
<path fill="none" stroke="#000000" d="M2091.4725,-24.7159C2142.4132,-39.8564 2252,-81.7531 2252,-162 2252,-738 2252,-738 2252,-738 2252,-836.6533 2105.4997,-868.4847 2034.5833,-878.1141"/>
<polygon fill="#000000" stroke="#000000" points="2033.766,-874.6899 2024.2895,-879.4276 2034.6521,-881.6336 2033.766,-874.6899"/>
</g>
<!-- lg&#45;&gt;gk -->
<g id="edge70" class="edge">
<title>lg-&gt;gk</title>
<path fill="none" stroke="#000000" d="M1869.8818,-179.067C1855.2716,-205.3725 1830,-257.8352 1830,-306 1830,-738 1830,-738 1830,-738 1830,-778.8816 1822.2128,-797.1171 1849,-828 1877.0166,-860.3002 1926.0056,-873.2884 1959.9057,-878.5058"/>
<polygon fill="#000000" stroke="#000000" points="1959.5168,-881.9853 1969.902,-879.8883 1960.4758,-875.0513 1959.5168,-881.9853"/>
</g>
<!-- rk -->
<g id="node34" class="node">
<title>rk</title>
<ellipse fill="none" stroke="#000000" cx="1880" cy="-90" rx="27" ry="18"/>
<text text-anchor="middle" x="1880" y="-85.8" font-family="Times,serif" font-size="14.00" fill="#000000">rk</text>
</g>
<!-- lg&#45;&gt;rk -->
<g id="edge71" class="edge">
<title>lg-&gt;rk</title>
<path fill="none" stroke="#000000" d="M1880,-143.8314C1880,-136.131 1880,-126.9743 1880,-118.4166"/>
<polygon fill="#000000" stroke="#000000" points="1883.5001,-118.4132 1880,-108.4133 1876.5001,-118.4133 1883.5001,-118.4132"/>
</g>
<!-- rl -->
<g id="node44" class="node">
<title>rl</title>
<ellipse fill="none" stroke="#000000" cx="2121" cy="-522" rx="27" ry="18"/>
<text text-anchor="middle" x="2121" y="-517.8" font-family="Times,serif" font-size="14.00" fill="#000000">rl</text>
</g>
<!-- mx&#45;&gt;rl -->
<g id="edge97" class="edge">
<title>mx-&gt;rl</title>
<path fill="none" stroke="#000000" d="M2092.0055,-576.937C2096.4828,-568.4537 2101.9952,-558.0092 2107.007,-548.513"/>
<polygon fill="#000000" stroke="#000000" points="2110.2229,-549.9182 2111.7952,-539.4407 2104.0322,-546.6509 2110.2229,-549.9182"/>
</g>
<!-- pq&#45;&gt;fv -->
<g id="edge75" class="edge">
<title>pq-&gt;fv</title>
<path fill="none" stroke="#000000" d="M694.9355,-684.2777C693.4235,-702.7125 692.6064,-731.825 699,-756 708.7925,-793.0267 731.4301,-831.1259 747.9034,-855.5938"/>
<polygon fill="#000000" stroke="#000000" points="745.1088,-857.707 753.6584,-863.9644 750.877,-853.7411 745.1088,-857.707"/>
</g>
<!-- pq&#45;&gt;lx -->
<g id="edge74" class="edge">
<title>pq-&gt;lx</title>
<path fill="none" stroke="#000000" d="M687.9945,-648.937C683.5172,-640.4537 678.0048,-630.0092 672.993,-620.513"/>
<polygon fill="#000000" stroke="#000000" points="675.9678,-618.6509 668.2048,-611.4407 669.7771,-621.9182 675.9678,-618.6509"/>
</g>
<!-- vq&#45;&gt;ng -->
<g id="edge63" class="edge">
<title>vq-&gt;ng</title>
<path fill="none" stroke="#000000" d="M2116.9382,-368.2898C2087.1509,-355.7477 2035.1321,-333.8451 2001.3884,-319.6372"/>
<polygon fill="#000000" stroke="#000000" points="2002.5435,-316.326 1991.9689,-315.6711 1999.827,-322.7775 2002.5435,-316.326"/>
</g>
<!-- bz&#45;&gt;gk -->
<g id="edge38" class="edge">
<title>bz-&gt;gk</title>
<path fill="none" stroke="#000000" d="M1906.7416,-820.7743C1923.7827,-830.6307 1947.4748,-845.5589 1966.3812,-858.207"/>
<polygon fill="#000000" stroke="#000000" points="1964.4469,-861.1241 1974.6901,-863.8314 1968.3709,-855.3273 1964.4469,-861.1241"/>
</g>
<!-- bz&#45;&gt;sc -->
<g id="edge39" class="edge">
<title>bz-&gt;sc</title>
<path fill="none" stroke="#000000" d="M1905.4201,-797.9488C1925.2135,-786.2675 1955.4393,-768.4293 1977.7774,-755.2461"/>
<polygon fill="#000000" stroke="#000000" points="1979.6801,-758.1873 1986.5133,-750.0905 1976.1223,-752.1589 1979.6801,-758.1873"/>
</g>
<!-- mk&#45;&gt;rt -->
<g id="edge105" class="edge">
<title>mk-&gt;rt</title>
<path fill="none" stroke="#000000" d="M1436.7488,-756.0896C1436.4087,-780.5727 1435.7984,-824.5174 1435.3962,-853.4713"/>
<polygon fill="#000000" stroke="#000000" points="1431.8926,-853.7146 1435.2533,-863.7623 1438.8919,-853.8119 1431.8926,-853.7146"/>
</g>
<!-- mk&#45;&gt;kt -->
<g id="edge106" class="edge">
<title>mk-&gt;kt</title>
<path fill="none" stroke="#000000" d="M1446.0055,-720.937C1450.4828,-712.4537 1455.9952,-702.0092 1461.007,-692.513"/>
<polygon fill="#000000" stroke="#000000" points="1464.2229,-693.9182 1465.7952,-683.4407 1458.0322,-690.6509 1464.2229,-693.9182"/>
</g>
<!-- pn -->
<g id="node29" class="node">
<title>pn</title>
<ellipse fill="none" stroke="#000000" cx="1258" cy="-18" rx="27" ry="18"/>
<text text-anchor="middle" x="1258" y="-13.8" font-family="Times,serif" font-size="14.00" fill="#000000">pn</text>
</g>
<!-- pn&#45;&gt;rt -->
<g id="edge27" class="edge">
<title>pn-&gt;rt</title>
<path fill="none" stroke="#000000" d="M1252.1984,-35.9672C1243.997,-63.0051 1230,-115.9025 1230,-162 1230,-738 1230,-738 1230,-738 1230,-782.331 1239.7718,-798.6551 1273,-828 1308.2925,-859.1679 1362.1472,-872.4471 1397.9482,-878.0374"/>
<polygon fill="#000000" stroke="#000000" points="1397.5914,-881.522 1407.9872,-879.478 1398.5858,-874.593 1397.5914,-881.522"/>
</g>
<!-- rq&#45;&gt;sl -->
<g id="edge28" class="edge">
<title>rq-&gt;sl</title>
<path fill="none" stroke="#000000" d="M376.9678,-822.1121C352.9684,-834.5604 312.6877,-853.9537 283.2358,-867.2794"/>
<polygon fill="#000000" stroke="#000000" points="281.7843,-864.0944 274.0884,-871.3762 284.6455,-870.483 281.7843,-864.0944"/>
</g>
<!-- rq&#45;&gt;xd -->
<g id="edge29" class="edge">
<title>rq-&gt;xd</title>
<path fill="none" stroke="#000000" d="M387.9945,-792.937C383.5172,-784.4537 378.0048,-774.0092 372.993,-764.513"/>
<polygon fill="#000000" stroke="#000000" points="375.9678,-762.6509 368.2048,-755.4407 369.7771,-765.9182 375.9678,-762.6509"/>
</g>
<!-- mm -->
<g id="node59" class="node">
<title>mm</title>
<ellipse fill="none" stroke="#000000" cx="321" cy="-666" rx="27" ry="18"/>
<text text-anchor="middle" x="321" y="-661.8" font-family="Times,serif" font-size="14.00" fill="#000000">mm</text>
</g>
<!-- xd&#45;&gt;mm -->
<g id="edge107" class="edge">
<title>xd-&gt;mm</title>
<path fill="none" stroke="#000000" d="M349.9945,-720.937C345.5172,-712.4537 340.0048,-702.0092 334.993,-692.513"/>
<polygon fill="#000000" stroke="#000000" points="337.9678,-690.6509 330.2048,-683.4407 331.7771,-693.9182 337.9678,-690.6509"/>
</g>
<!-- jr -->
<g id="node32" class="node">
<title>jr</title>
<ellipse fill="none" stroke="#000000" cx="659" cy="-90" rx="27" ry="18"/>
<text text-anchor="middle" x="659" y="-85.8" font-family="Times,serif" font-size="14.00" fill="#000000">jr</text>
</g>
<!-- jr&#45;&gt;fv -->
<g id="edge30" class="edge">
<title>jr-&gt;fv</title>
<path fill="none" stroke="#000000" d="M684.6729,-95.8093C760.1397,-113.6221 976,-170.153 976,-234 976,-738 976,-738 976,-738 976,-778.8816 984.8956,-798.1145 957,-828 936.3013,-850.1753 853.4695,-867.4907 804.2678,-876.0726"/>
<polygon fill="#000000" stroke="#000000" points="803.5829,-872.6388 794.3136,-877.77 804.7596,-879.5392 803.5829,-872.6388"/>
</g>
<!-- jr&#45;&gt;bc -->
<g id="edge31" class="edge">
<title>jr-&gt;bc</title>
<path fill="none" stroke="#000000" d="M642.4043,-75.7751C630.1739,-65.2919 613.3399,-50.8628 599.5549,-39.0471"/>
<polygon fill="#000000" stroke="#000000" points="601.7191,-36.2923 591.8487,-32.4418 597.1635,-41.6071 601.7191,-36.2923"/>
</g>
<!-- vm -->
<g id="node33" class="node">
<title>vm</title>
<ellipse fill="none" stroke="#000000" cx="1285" cy="-90" rx="27" ry="18"/>
<text text-anchor="middle" x="1285" y="-85.8" font-family="Times,serif" font-size="14.00" fill="#000000">vm</text>
</g>
<!-- vm&#45;&gt;rt -->
<g id="edge32" class="edge">
<title>vm-&gt;rt</title>
<path fill="none" stroke="#000000" d="M1281.4776,-108.1045C1276.4982,-135.3176 1268,-188.4358 1268,-234 1268,-738 1268,-738 1268,-738 1268,-781.0813 1273.697,-797.3776 1304,-828 1329.5389,-853.8081 1369.175,-867.8071 1398.1631,-875.0351"/>
<polygon fill="#000000" stroke="#000000" points="1397.3979,-878.4505 1407.932,-877.3176 1398.9906,-871.6341 1397.3979,-878.4505"/>
</g>
<!-- vm&#45;&gt;pn -->
<g id="edge33" class="edge">
<title>vm-&gt;pn</title>
<path fill="none" stroke="#000000" d="M1278.3258,-72.2022C1275.2524,-64.0064 1271.5384,-54.1024 1268.1305,-45.0145"/>
<polygon fill="#000000" stroke="#000000" points="1271.3858,-43.7274 1264.5974,-35.593 1264.8315,-46.1853 1271.3858,-43.7274"/>
</g>
<!-- rk&#45;&gt;gk -->
<g id="edge34" class="edge">
<title>rk-&gt;gk</title>
<path fill="none" stroke="#000000" d="M1863.4479,-104.5776C1837.9564,-128.7331 1792,-179.7975 1792,-234 1792,-738 1792,-738 1792,-738 1792,-780.9182 1795.7067,-798.6281 1827,-828 1846.3357,-846.1485 1915.8897,-864.1834 1959.8132,-874.1336"/>
<polygon fill="#000000" stroke="#000000" points="1959.3222,-877.6099 1969.8439,-876.3667 1960.8435,-870.7772 1959.3222,-877.6099"/>
</g>
<!-- rk&#45;&gt;sb -->
<g id="edge35" class="edge">
<title>rk-&gt;sb</title>
<path fill="none" stroke="#000000" d="M1903.557,-80.8812C1936.4,-68.1677 1996.0882,-45.0626 2033.2474,-30.6784"/>
<polygon fill="#000000" stroke="#000000" points="2034.5721,-33.9188 2042.6342,-27.0448 2032.0451,-27.3908 2034.5721,-33.9188"/>
</g>
<!-- gs&#45;&gt;xt -->
<g id="edge36" class="edge">
<title>gs-&gt;xt</title>
<path fill="none" stroke="#000000" d="M640,-503.8314C640,-496.131 640,-486.9743 640,-478.4166"/>
<polygon fill="#000000" stroke="#000000" points="643.5001,-478.4132 640,-468.4133 636.5001,-478.4133 643.5001,-478.4132"/>
</g>
<!-- gn -->
<g id="node41" class="node">
<title>gn</title>
<ellipse fill="none" stroke="#000000" cx="773" cy="-378" rx="27" ry="18"/>
<text text-anchor="middle" x="773" y="-373.8" font-family="Times,serif" font-size="14.00" fill="#000000">gn</text>
</g>
<!-- xt&#45;&gt;gn -->
<g id="edge76" class="edge">
<title>xt-&gt;gn</title>
<path fill="none" stroke="#000000" d="M661.0742,-438.5914C683.157,-426.6368 718.0414,-407.752 742.9945,-394.2436"/>
<polygon fill="#000000" stroke="#000000" points="744.8965,-397.1939 752.0244,-389.3552 741.564,-391.0381 744.8965,-397.1939"/>
</g>
<!-- dc -->
<g id="node37" class="node">
<title>dc</title>
<ellipse fill="none" stroke="#000000" cx="28" cy="-18" rx="27" ry="18"/>
<text text-anchor="middle" x="28" y="-13.8" font-family="Times,serif" font-size="14.00" fill="#000000">dc</text>
</g>
<!-- dc&#45;&gt;sl -->
<g id="edge37" class="edge">
<title>dc-&gt;sl</title>
<path fill="none" stroke="#000000" d="M22.1984,-35.9672C13.997,-63.0051 0,-115.9025 0,-162 0,-738 0,-738 0,-738 0,-783.5442 13.28,-799.7448 49,-828 73.8498,-847.6567 159.7353,-866.0641 209.8569,-875.4709"/>
<polygon fill="#000000" stroke="#000000" points="209.5054,-878.9651 219.9746,-877.3388 210.7763,-872.0814 209.5054,-878.9651"/>
</g>
<!-- ql -->
<g id="node38" class="node">
<title>ql</title>
<ellipse fill="none" stroke="#000000" cx="283" cy="-594" rx="27" ry="18"/>
<text text-anchor="middle" x="283" y="-589.8" font-family="Times,serif" font-size="14.00" fill="#000000">ql</text>
</g>
<!-- ql&#45;&gt;sl -->
<g id="edge40" class="edge">
<title>ql-&gt;sl</title>
<path fill="none" stroke="#000000" d="M280.7489,-612.0089C274.6636,-660.6912 257.8514,-795.1886 250.5082,-853.9345"/>
<polygon fill="#000000" stroke="#000000" points="247.0194,-853.6274 249.252,-863.9843 253.9654,-854.4957 247.0194,-853.6274"/>
</g>
<!-- ql&#45;&gt;fz -->
<g id="edge41" class="edge">
<title>ql-&gt;fz</title>
<path fill="none" stroke="#000000" d="M273.9945,-576.937C269.5172,-568.4537 264.0048,-558.0092 258.993,-548.513"/>
<polygon fill="#000000" stroke="#000000" points="261.9678,-546.6509 254.2048,-539.4407 255.7771,-549.9182 261.9678,-546.6509"/>
</g>
<!-- jc -->
<g id="node55" class="node">
<title>jc</title>
<ellipse fill="none" stroke="#000000" cx="207" cy="-450" rx="27" ry="18"/>
<text text-anchor="middle" x="207" y="-445.8" font-family="Times,serif" font-size="14.00" fill="#000000">jc</text>
</g>
<!-- fz&#45;&gt;jc -->
<g id="edge104" class="edge">
<title>fz-&gt;jc</title>
<path fill="none" stroke="#000000" d="M235.9945,-504.937C231.5172,-496.4537 226.0048,-486.0092 220.993,-476.513"/>
<polygon fill="#000000" stroke="#000000" points="223.9678,-474.6509 216.2048,-467.4407 217.7771,-477.9182 223.9678,-474.6509"/>
</g>
<!-- bt&#45;&gt;rt -->
<g id="edge82" class="edge">
<title>bt-&gt;rt</title>
<path fill="none" stroke="#000000" d="M1501.0667,-611.674C1504.8389,-622.0654 1509.0889,-635.5654 1511,-648 1513.4305,-663.8143 1513.0067,-668.1263 1511,-684 1502.7123,-749.5571 1502.0556,-768.1727 1474,-828 1469.5074,-837.5803 1463.244,-847.2107 1457.0496,-855.6315"/>
<polygon fill="#000000" stroke="#000000" points="1454.2469,-853.5348 1450.9464,-863.6025 1459.8048,-857.7904 1454.2469,-853.5348"/>
</g>
<!-- bt&#45;&gt;fn -->
<g id="edge83" class="edge">
<title>bt-&gt;fn</title>
<path fill="none" stroke="#000000" d="M1494,-575.8314C1494,-568.131 1494,-558.9743 1494,-550.4166"/>
<polygon fill="#000000" stroke="#000000" points="1497.5001,-550.4132 1494,-540.4133 1490.5001,-550.4133 1497.5001,-550.4132"/>
</g>
<!-- gn&#45;&gt;fv -->
<g id="edge43" class="edge">
<title>gn-&gt;fv</title>
<path fill="none" stroke="#000000" d="M776.5224,-396.1045C781.5018,-423.3176 790,-476.4358 790,-522 790,-738 790,-738 790,-738 790,-778.8116 780.88,-825.3242 774.1257,-854.1753"/>
<polygon fill="#000000" stroke="#000000" points="770.7075,-853.4204 771.7656,-863.9623 777.5124,-855.0615 770.7075,-853.4204"/>
</g>
<!-- gn&#45;&gt;hk -->
<g id="edge44" class="edge">
<title>gn-&gt;hk</title>
<path fill="none" stroke="#000000" d="M777.6966,-360.2022C779.7976,-352.2406 782.324,-342.6671 784.665,-333.7957"/>
<polygon fill="#000000" stroke="#000000" points="788.1241,-334.4046 787.2916,-323.8425 781.3558,-332.6185 788.1241,-334.4046"/>
</g>
<!-- jx -->
<g id="node49" class="node">
<title>jx</title>
<ellipse fill="none" stroke="#000000" cx="792" cy="-234" rx="27" ry="18"/>
<text text-anchor="middle" x="792" y="-229.8" font-family="Times,serif" font-size="14.00" fill="#000000">jx</text>
</g>
<!-- hk&#45;&gt;jx -->
<g id="edge59" class="edge">
<title>hk-&gt;jx</title>
<path fill="none" stroke="#000000" d="M792,-287.8314C792,-280.131 792,-270.9743 792,-262.4166"/>
<polygon fill="#000000" stroke="#000000" points="795.5001,-262.4132 792,-252.4133 788.5001,-262.4133 795.5001,-262.4132"/>
</g>
<!-- broadcaster -->
<g id="node43" class="node">
<title>broadcaster</title>
<ellipse fill="none" stroke="#000000" cx="1182" cy="-882" rx="55.5753" ry="18"/>
<text text-anchor="middle" x="1182" y="-877.8" font-family="Times,serif" font-size="14.00" fill="#000000">broadcaster</text>
</g>
<!-- broadcaster&#45;&gt;cn -->
<g id="edge47" class="edge">
<title>broadcaster-&gt;cn</title>
<path fill="none" stroke="#000000" d="M1149.6785,-867.0818C1126.5758,-856.3556 1094.7876,-841.4684 1067,-828 1065.2551,-827.1542 1063.4654,-826.2803 1061.6613,-825.3943"/>
<polygon fill="#000000" stroke="#000000" points="1063.1741,-822.2379 1052.6593,-820.9377 1060.0683,-828.5112 1063.1741,-822.2379"/>
</g>
<!-- broadcaster&#45;&gt;bs -->
<g id="edge45" class="edge">
<title>broadcaster-&gt;bs</title>
<path fill="none" stroke="#000000" d="M1216.9379,-867.9468C1249.1622,-854.9851 1296.6461,-835.8854 1328.1794,-823.2016"/>
<polygon fill="#000000" stroke="#000000" points="1329.846,-826.3038 1337.8174,-819.3248 1327.2337,-819.8095 1329.846,-826.3038"/>
</g>
<!-- broadcaster&#45;&gt;bz -->
<g id="edge48" class="edge">
<title>broadcaster-&gt;bz</title>
<path fill="none" stroke="#000000" d="M1235.8124,-877.1432C1334.7259,-868.1273 1552.0754,-847.9042 1735,-828 1773.7187,-823.787 1817.9883,-818.4053 1848.3421,-814.6281"/>
<polygon fill="#000000" stroke="#000000" points="1848.9773,-818.0761 1858.4664,-813.3636 1848.1097,-811.1301 1848.9773,-818.0761"/>
</g>
<!-- broadcaster&#45;&gt;rq -->
<g id="edge46" class="edge">
<title>broadcaster-&gt;rq</title>
<path fill="none" stroke="#000000" d="M1128.3527,-877.0795C978.8736,-863.3693 560.3484,-824.9823 433.7424,-813.37"/>
<polygon fill="#000000" stroke="#000000" points="434.0473,-809.8834 423.7694,-812.4553 433.4079,-816.8541 434.0473,-809.8834"/>
</g>
<!-- rl&#45;&gt;gk -->
<g id="edge50" class="edge">
<title>rl-&gt;gk</title>
<path fill="none" stroke="#000000" d="M2124.5224,-540.1045C2129.5018,-567.3176 2138,-620.4358 2138,-666 2138,-738 2138,-738 2138,-738 2138,-797.853 2075.0423,-842.0142 2033.2652,-864.7295"/>
<polygon fill="#000000" stroke="#000000" points="2031.4019,-861.7551 2024.1862,-869.513 2034.6649,-867.9481 2031.4019,-861.7551"/>
</g>
<!-- rh -->
<g id="node45" class="node">
<title>rh</title>
<ellipse fill="none" stroke="#000000" cx="2140" cy="-450" rx="27" ry="18"/>
<text text-anchor="middle" x="2140" y="-445.8" font-family="Times,serif" font-size="14.00" fill="#000000">rh</text>
</g>
<!-- rl&#45;&gt;rh -->
<g id="edge49" class="edge">
<title>rl-&gt;rh</title>
<path fill="none" stroke="#000000" d="M2125.6966,-504.2022C2127.7976,-496.2406 2130.324,-486.6671 2132.665,-477.7957"/>
<polygon fill="#000000" stroke="#000000" points="2136.1241,-478.4046 2135.2916,-467.8425 2129.3558,-476.6185 2136.1241,-478.4046"/>
</g>
<!-- rh&#45;&gt;gk -->
<g id="edge57" class="edge">
<title>rh-&gt;gk</title>
<path fill="none" stroke="#000000" d="M2147.2851,-467.384C2157.8044,-494.1035 2176,-547.0997 2176,-594 2176,-738 2176,-738 2176,-738 2176,-810.3156 2086.2079,-852.4298 2033.816,-870.8476"/>
<polygon fill="#000000" stroke="#000000" points="2032.5313,-867.5874 2024.1862,-874.1151 2034.7806,-874.2162 2032.5313,-867.5874"/>
</g>
<!-- rh&#45;&gt;vq -->
<g id="edge58" class="edge">
<title>rh-&gt;vq</title>
<path fill="none" stroke="#000000" d="M2140,-431.8314C2140,-424.131 2140,-414.9743 2140,-406.4166"/>
<polygon fill="#000000" stroke="#000000" points="2143.5001,-406.4132 2140,-396.4133 2136.5001,-406.4133 2143.5001,-406.4132"/>
</g>
<!-- vj&#45;&gt;rt -->
<g id="edge52" class="edge">
<title>vj-&gt;rt</title>
<path fill="none" stroke="#000000" d="M1554.5224,-468.1045C1559.5018,-495.3176 1568,-548.4358 1568,-594 1568,-738 1568,-738 1568,-738 1568,-795.1833 1510.7017,-839.3377 1471.3222,-862.9312"/>
<polygon fill="#000000" stroke="#000000" points="1469.1273,-860.1583 1462.2355,-868.2053 1472.6412,-866.2125 1469.1273,-860.1583"/>
</g>
<!-- rr -->
<g id="node48" class="node">
<title>rr</title>
<ellipse fill="none" stroke="#000000" cx="1570" cy="-378" rx="27" ry="18"/>
<text text-anchor="middle" x="1570" y="-373.8" font-family="Times,serif" font-size="14.00" fill="#000000">rr</text>
</g>
<!-- vj&#45;&gt;rr -->
<g id="edge53" class="edge">
<title>vj-&gt;rr</title>
<path fill="none" stroke="#000000" d="M1555.6966,-432.2022C1557.7976,-424.2406 1560.324,-414.6671 1562.665,-405.7957"/>
<polygon fill="#000000" stroke="#000000" points="1566.1241,-406.4046 1565.2916,-395.8425 1559.3558,-404.6185 1566.1241,-406.4046"/>
</g>
<!-- rr&#45;&gt;rt -->
<g id="edge90" class="edge">
<title>rr-&gt;rt</title>
<path fill="none" stroke="#000000" d="M1577.2851,-395.384C1587.8044,-422.1035 1606,-475.0997 1606,-522 1606,-738 1606,-738 1606,-738 1606,-807.6791 1521.8999,-850.4483 1471.6576,-869.7819"/>
<polygon fill="#000000" stroke="#000000" points="1470.2488,-866.5715 1462.0955,-873.3372 1472.6883,-873.1327 1470.2488,-866.5715"/>
</g>
<!-- rr&#45;&gt;hv -->
<g id="edge89" class="edge">
<title>rr-&gt;hv</title>
<path fill="none" stroke="#000000" d="M1570,-359.8314C1570,-352.131 1570,-342.9743 1570,-334.4166"/>
<polygon fill="#000000" stroke="#000000" points="1573.5001,-334.4132 1570,-324.4133 1566.5001,-334.4133 1573.5001,-334.4132"/>
</g>
<!-- jx&#45;&gt;fv -->
<g id="edge54" class="edge">
<title>jx-&gt;fv</title>
<path fill="none" stroke="#000000" d="M806.2679,-249.4916C827.7715,-274.5178 866,-326.2816 866,-378 866,-738 866,-738 866,-738 866,-786.5294 827.347,-830.6344 798.3455,-856.8966"/>
<polygon fill="#000000" stroke="#000000" points="795.6663,-854.5913 790.4616,-863.8196 800.2852,-859.8512 795.6663,-854.5913"/>
</g>
<!-- bf -->
<g id="node50" class="node">
<title>bf</title>
<ellipse fill="none" stroke="#000000" cx="659" cy="-162" rx="27" ry="18"/>
<text text-anchor="middle" x="659" y="-157.8" font-family="Times,serif" font-size="14.00" fill="#000000">bf</text>
</g>
<!-- jx&#45;&gt;bf -->
<g id="edge55" class="edge">
<title>jx-&gt;bf</title>
<path fill="none" stroke="#000000" d="M770.9258,-222.5914C748.843,-210.6368 713.9586,-191.752 689.0055,-178.2436"/>
<polygon fill="#000000" stroke="#000000" points="690.436,-175.0381 679.9756,-173.3552 687.1035,-181.1939 690.436,-175.0381"/>
</g>
<!-- bf&#45;&gt;fv -->
<g id="edge77" class="edge">
<title>bf-&gt;fv</title>
<path fill="none" stroke="#000000" d="M637.368,-172.9742C600.1603,-193.5681 528,-241.7854 528,-306 528,-738 528,-738 528,-738 528,-783.9758 542.8912,-799.5407 579,-828 623.1628,-862.8071 688.8496,-875.1787 729.7394,-879.5757"/>
<polygon fill="#000000" stroke="#000000" points="729.5325,-883.072 739.8233,-880.5523 730.2073,-876.1046 729.5325,-883.072"/>
</g>
<!-- bf&#45;&gt;jr -->
<g id="edge78" class="edge">
<title>bf-&gt;jr</title>
<path fill="none" stroke="#000000" d="M659,-143.8314C659,-136.131 659,-126.9743 659,-118.4166"/>
<polygon fill="#000000" stroke="#000000" points="662.5001,-118.4132 659,-108.4133 655.5001,-118.4133 662.5001,-118.4132"/>
</g>
<!-- jl -->
<g id="node51" class="node">
<title>jl</title>
<ellipse fill="none" stroke="#000000" cx="93" cy="-162" rx="27" ry="18"/>
<text text-anchor="middle" x="93" y="-157.8" font-family="Times,serif" font-size="14.00" fill="#000000">jl</text>
</g>
<!-- jl&#45;&gt;sl -->
<g id="edge62" class="edge">
<title>jl-&gt;sl</title>
<path fill="none" stroke="#000000" d="M89.4776,-180.1045C84.4982,-207.3176 76,-260.4358 76,-306 76,-738 76,-738 76,-738 76,-784.6476 95.2827,-796.8438 130,-828 152.975,-848.6184 185.1752,-862.6986 209.9805,-871.2985"/>
<polygon fill="#000000" stroke="#000000" points="209.1753,-874.7189 219.7687,-874.5438 211.3783,-868.0745 209.1753,-874.7189"/>
</g>
<!-- mr -->
<g id="node52" class="node">
<title>mr</title>
<ellipse fill="none" stroke="#000000" cx="55" cy="-90" rx="27" ry="18"/>
<text text-anchor="middle" x="55" y="-85.8" font-family="Times,serif" font-size="14.00" fill="#000000">mr</text>
</g>
<!-- jl&#45;&gt;mr -->
<g id="edge61" class="edge">
<title>jl-&gt;mr</title>
<path fill="none" stroke="#000000" d="M83.9945,-144.937C79.5172,-136.4537 74.0048,-126.0092 68.993,-116.513"/>
<polygon fill="#000000" stroke="#000000" points="71.9678,-114.6509 64.2048,-107.4407 65.7771,-117.9182 71.9678,-114.6509"/>
</g>
<!-- mr&#45;&gt;sl -->
<g id="edge64" class="edge">
<title>mr-&gt;sl</title>
<path fill="none" stroke="#000000" d="M51.4776,-108.1045C46.4982,-135.3176 38,-188.4358 38,-234 38,-738 38,-738 38,-738 38,-784.1966 54.3439,-798.6271 90,-828 124.6782,-856.5673 175.3329,-870.3663 209.6516,-876.7902"/>
<polygon fill="#000000" stroke="#000000" points="209.2885,-880.2797 219.742,-878.5553 210.4947,-873.3844 209.2885,-880.2797"/>
</g>
<!-- mr&#45;&gt;dc -->
<g id="edge65" class="edge">
<title>mr-&gt;dc</title>
<path fill="none" stroke="#000000" d="M48.3258,-72.2022C45.2524,-64.0064 41.5384,-54.1024 38.1305,-45.0145"/>
<polygon fill="#000000" stroke="#000000" points="41.3858,-43.7274 34.5974,-35.593 34.8315,-46.1853 41.3858,-43.7274"/>
</g>
<!-- cc -->
<g id="node54" class="node">
<title>cc</title>
<ellipse fill="none" stroke="#000000" cx="188" cy="-306" rx="27" ry="18"/>
<text text-anchor="middle" x="188" y="-301.8" font-family="Times,serif" font-size="14.00" fill="#000000">cc</text>
</g>
<!-- fk&#45;&gt;cc -->
<g id="edge66" class="edge">
<title>fk-&gt;cc</title>
<path fill="none" stroke="#000000" d="M188,-359.8314C188,-352.131 188,-342.9743 188,-334.4166"/>
<polygon fill="#000000" stroke="#000000" points="191.5001,-334.4132 188,-324.4133 184.5001,-334.4133 191.5001,-334.4132"/>
</g>
<!-- cc&#45;&gt;sl -->
<g id="edge108" class="edge">
<title>cc-&gt;sl</title>
<path fill="none" stroke="#000000" d="M215.2583,-308.1251C282.7098,-315.0164 452,-342.9732 452,-450 452,-738 452,-738 452,-738 452,-778.8816 460.8111,-798.0358 433,-828 412.8613,-849.6979 332.4318,-867.0943 284.1765,-875.8414"/>
<polygon fill="#000000" stroke="#000000" points="283.3461,-872.434 274.1104,-877.6255 284.5678,-879.3265 283.3461,-872.434"/>
</g>
<!-- gv -->
<g id="node58" class="node">
<title>gv</title>
<ellipse fill="none" stroke="#000000" cx="131" cy="-234" rx="27" ry="18"/>
<text text-anchor="middle" x="131" y="-229.8" font-family="Times,serif" font-size="14.00" fill="#000000">gv</text>
</g>
<!-- cc&#45;&gt;gv -->
<g id="edge109" class="edge">
<title>cc-&gt;gv</title>
<path fill="none" stroke="#000000" d="M175.3499,-290.0209C167.8965,-280.6061 158.3225,-268.5126 149.9786,-257.973"/>
<polygon fill="#000000" stroke="#000000" points="152.566,-255.6025 143.6148,-249.9345 147.0777,-259.9474 152.566,-255.6025"/>
</g>
<!-- jc&#45;&gt;sl -->
<g id="edge68" class="edge">
<title>jc-&gt;sl</title>
<path fill="none" stroke="#000000" d="M203.4776,-468.1045C198.4982,-495.3176 190,-548.4358 190,-594 190,-738 190,-738 190,-738 190,-781.2403 212.4945,-826.9813 229.2212,-855.0168"/>
<polygon fill="#000000" stroke="#000000" points="226.4126,-857.1312 234.6318,-863.8166 232.3756,-853.4647 226.4126,-857.1312"/>
</g>
<!-- jc&#45;&gt;fk -->
<g id="edge67" class="edge">
<title>jc-&gt;fk</title>
<path fill="none" stroke="#000000" d="M202.3034,-432.2022C200.2024,-424.2406 197.676,-414.6671 195.335,-405.7957"/>
<polygon fill="#000000" stroke="#000000" points="198.6442,-404.6185 192.7084,-395.8425 191.8759,-406.4046 198.6442,-404.6185"/>
</g>
<!-- jg&#45;&gt;rt -->
<g id="edge87" class="edge">
<title>jg-&gt;rt</title>
<path fill="none" stroke="#000000" d="M1629.9688,-171.6388C1671.3125,-190.7035 1754,-237.407 1754,-306 1754,-738 1754,-738 1754,-738 1754,-778.8816 1764.3375,-799.5286 1735,-828 1698.0795,-863.8305 1544.181,-876.3841 1472.2975,-880.3497"/>
<polygon fill="#000000" stroke="#000000" points="1472.1131,-876.8545 1462.3105,-880.8742 1472.4803,-883.8448 1472.1131,-876.8545"/>
</g>
<!-- jg&#45;&gt;vm -->
<g id="edge86" class="edge">
<title>jg-&gt;vm</title>
<path fill="none" stroke="#000000" d="M1581.1937,-156.2296C1523.9636,-143.4329 1386.3016,-112.6513 1320.799,-98.0048"/>
<polygon fill="#000000" stroke="#000000" points="1321.452,-94.5644 1310.9292,-95.7978 1319.9244,-101.3957 1321.452,-94.5644"/>
</g>
<!-- lx&#45;&gt;gs -->
<g id="edge88" class="edge">
<title>lx-&gt;gs</title>
<path fill="none" stroke="#000000" d="M654.3034,-576.2022C652.2024,-568.2406 649.676,-558.6671 647.335,-549.7957"/>
<polygon fill="#000000" stroke="#000000" points="650.6442,-548.6185 644.7084,-539.8425 643.8759,-550.4046 650.6442,-548.6185"/>
</g>
<!-- gv&#45;&gt;sl -->
<g id="edge80" class="edge">
<title>gv-&gt;sl</title>
<path fill="none" stroke="#000000" d="M127.4776,-252.1045C122.4982,-279.3176 114,-332.4358 114,-378 114,-738 114,-738 114,-738 114,-795.1833 171.2983,-839.3377 210.6778,-862.9312"/>
<polygon fill="#000000" stroke="#000000" points="209.3588,-866.2125 219.7645,-868.2053 212.8727,-860.1583 209.3588,-866.2125"/>
</g>
<!-- gv&#45;&gt;jl -->
<g id="edge81" class="edge">
<title>gv-&gt;jl</title>
<path fill="none" stroke="#000000" d="M121.9945,-216.937C117.5172,-208.4537 112.0048,-198.0092 106.993,-188.513"/>
<polygon fill="#000000" stroke="#000000" points="109.9678,-186.6509 102.2048,-179.4407 103.7771,-189.9182 109.9678,-186.6509"/>
</g>
<!-- mm&#45;&gt;sl -->
<g id="edge84" class="edge">
<title>mm-&gt;sl</title>
<path fill="none" stroke="#000000" d="M318.255,-684.0638C313.2175,-714.6024 301.0375,-777.993 280,-828 276.1203,-837.2222 270.8252,-846.7162 265.6125,-855.1217"/>
<polygon fill="#000000" stroke="#000000" points="262.5277,-853.4477 260.0594,-863.751 268.4142,-857.2358 262.5277,-853.4477"/>
</g>
<!-- mm&#45;&gt;ql -->
<g id="edge85" class="edge">
<title>mm-&gt;ql</title>
<path fill="none" stroke="#000000" d="M311.9945,-648.937C307.5172,-640.4537 302.0048,-630.0092 296.993,-620.513"/>
<polygon fill="#000000" stroke="#000000" points="299.9678,-618.6509 292.2048,-611.4407 293.7771,-621.9182 299.9678,-618.6509"/>
</g>
<!-- button -->
<g id="node60" class="node">
<title>button</title>
<ellipse fill="none" stroke="#000000" cx="1182" cy="-954" rx="35.9368" ry="18"/>
<text text-anchor="middle" x="1182" y="-949.8" font-family="Times,serif" font-size="14.00" fill="#000000">button</text>
</g>
<!-- button&#45;&gt;broadcaster -->
<g id="edge110" class="edge">
<title>button-&gt;broadcaster</title>
<path fill="none" stroke="#000000" d="M1182,-935.8314C1182,-928.131 1182,-918.9743 1182,-910.4166"/>
<polygon fill="#000000" stroke="#000000" points="1185.5001,-910.4132 1182,-900.4133 1178.5001,-910.4133 1185.5001,-910.4132"/>
</g>
</g>
</svg>